<svg id="Layer_1" data-name="Layer 1" xmlns="http://www.w3.org/2000/svg" viewBox="0 0 108 72"><defs><style>.cls-1{fill:#1c1c1a;}</style></defs><polygon class="cls-1" points="24.02 54.79 18.49 54.72 18.52 51.95 27.43 52.06 27.4 54.64 21.46 64.63 27.69 64.7 27.66 67.47 18.01 67.36 18.04 64.92 24.02 54.79"/><path class="cls-1" d="M35.13,55.62a6.16,6.16,0,1,0,6,6.25,6.16,6.16,0,0,0-6-6.25M35,58.34a3.4,3.4,0,0,1,3.35,3.5,3.32,3.32,0,0,1-3.44,3.38,3.37,3.37,0,0,1-3.29-3.46,3.32,3.32,0,0,1,1-2.39,3.42,3.42,0,0,1,2.39-1"/><path class="cls-1" d="M55.28,52.38l-2.77,0-.06,5a4.71,4.71,0,0,0-3.54-1.6,5.89,5.89,0,0,0-4.28,1.91A6.32,6.32,0,0,0,43,61.92a6.41,6.41,0,0,0,1.52,4.19,5.49,5.49,0,0,0,4.15,2,4.53,4.53,0,0,0,3.86-1.89h0l0,1.56,2.54,0ZM52.59,62a3.41,3.41,0,1,1-3.43-3.46A3.44,3.44,0,0,1,52.59,62"/><path class="cls-1" d="M58.22,52.42l2.78,0L61,55l-2.78,0Zm0,3.85,2.78,0-.14,11.56-2.78,0Z"/><path class="cls-1" d="M75.73,56.47l-2.55,0,0,1.63a4.65,4.65,0,0,0-3.86-2A5.49,5.49,0,0,0,65,58a5.89,5.89,0,0,0-1.52,4.13,6.56,6.56,0,0,0,1.39,4.23,5.39,5.39,0,0,0,4.22,2,5.08,5.08,0,0,0,4-1.89h0L73,68l2.55,0ZM73,62.2a3.28,3.28,0,0,1-3.42,3.42,3.32,3.32,0,0,1-3.38-3.37,3.36,3.36,0,0,1,3.5-3.51A3.26,3.26,0,0,1,73,62.2"/><path class="cls-1" d="M89.94,64.45a6,6,0,0,1-5.78,4,6.29,6.29,0,0,1-4.28-1.78,6.15,6.15,0,0,1,4.4-10.52A6,6,0,0,1,90,60.48l-3.13,0a2.88,2.88,0,0,0-2.65-1.53,3.27,3.27,0,0,0-3.38,3.36,3.34,3.34,0,0,0,3.44,3.52,3,3,0,0,0,2.55-1.38Z"/><path class="cls-1" d="M51.08,27.66,51,37.6a11.64,11.64,0,0,1-9.34-10ZM41.7,20.84a11.7,11.7,0,0,1,9.58-9.76L51.16,21Zm16.09,6.9,9.46.11a11.64,11.64,0,0,1-9.58,9.83ZM57.86,21,58,11.16a11.63,11.63,0,0,1,9.32,10Zm14.72.17C70.81,11.92,60,9.92,58,9.61l0-6-6.69-.08-.06,6c-2,.27-12.87,2-14.87,11.25l-6-.08-.08,6.72,6,.07C38.07,36.84,48.92,38.85,51,39.14l-.07,6,6.7.08.07-6c2-.24,12.93-2,14.87-11.31l6,.07.08-6.71Z"/></svg>